<mxfile host="app.diagrams.net" modified="2024-01-04T08:53:49.420Z" agent="Mozilla/5.0 (Windows NT 10.0; Win64; x64) AppleWebKit/537.36 (KHTML, like Gecko) Chrome/120.0.0.0 Safari/537.36 Edg/120.0.0.0" etag="yhqGGQxEOLt-JPOke56V" version="22.1.16" type="github">
  <diagram name="페이지-1" id="qoqWtxmgaG1yz5FShtzU">
    <mxGraphModel dx="696" dy="824" grid="1" gridSize="10" guides="1" tooltips="1" connect="1" arrows="1" fold="1" page="1" pageScale="1" pageWidth="827" pageHeight="1169" math="0" shadow="0">
      <root>
        <mxCell id="0" />
        <mxCell id="1" parent="0" />
        <mxCell id="Vwsw8WGM1iIzzPKuS9Um-22" value="" style="endArrow=none;html=1;rounded=0;exitX=0;exitY=0.5;exitDx=0;exitDy=0;entryX=1;entryY=0.5;entryDx=0;entryDy=0;" edge="1" parent="1" source="Vwsw8WGM1iIzzPKuS9Um-21" target="Vwsw8WGM1iIzzPKuS9Um-21">
          <mxGeometry relative="1" as="geometry">
            <mxPoint x="310" y="480" as="sourcePoint" />
            <mxPoint x="470" y="480" as="targetPoint" />
          </mxGeometry>
        </mxCell>
        <mxCell id="Vwsw8WGM1iIzzPKuS9Um-23" value="M" style="resizable=0;html=1;whiteSpace=wrap;align=left;verticalAlign=bottom;" connectable="0" vertex="1" parent="Vwsw8WGM1iIzzPKuS9Um-22">
          <mxGeometry x="-1" relative="1" as="geometry">
            <mxPoint x="-10" as="offset" />
          </mxGeometry>
        </mxCell>
        <mxCell id="Vwsw8WGM1iIzzPKuS9Um-24" value="N" style="resizable=0;html=1;whiteSpace=wrap;align=right;verticalAlign=bottom;" connectable="0" vertex="1" parent="Vwsw8WGM1iIzzPKuS9Um-22">
          <mxGeometry x="1" relative="1" as="geometry">
            <mxPoint x="10" as="offset" />
          </mxGeometry>
        </mxCell>
        <mxCell id="Vwsw8WGM1iIzzPKuS9Um-2" value="&lt;font style=&quot;font-size: 18px;&quot;&gt;소속&lt;/font&gt;" style="shape=rhombus;perimeter=rhombusPerimeter;whiteSpace=wrap;html=1;align=center;fillColor=#D5E8D4;" vertex="1" parent="1">
          <mxGeometry x="320" y="240" width="120" height="60" as="geometry" />
        </mxCell>
        <mxCell id="Vwsw8WGM1iIzzPKuS9Um-3" value="" style="endArrow=none;html=1;rounded=0;entryX=0;entryY=0.5;entryDx=0;entryDy=0;exitX=1;exitY=0.5;exitDx=0;exitDy=0;" edge="1" parent="1" source="Vwsw8WGM1iIzzPKuS9Um-5" target="Vwsw8WGM1iIzzPKuS9Um-2">
          <mxGeometry relative="1" as="geometry">
            <mxPoint x="210" y="280" as="sourcePoint" />
            <mxPoint x="520" y="580" as="targetPoint" />
            <Array as="points" />
          </mxGeometry>
        </mxCell>
        <mxCell id="Vwsw8WGM1iIzzPKuS9Um-4" value="N" style="resizable=0;html=1;whiteSpace=wrap;align=right;verticalAlign=bottom;" connectable="0" vertex="1" parent="Vwsw8WGM1iIzzPKuS9Um-3">
          <mxGeometry x="1" relative="1" as="geometry" />
        </mxCell>
        <mxCell id="Vwsw8WGM1iIzzPKuS9Um-5" value="&lt;font style=&quot;font-size: 18px;&quot;&gt;교수&lt;/font&gt;" style="whiteSpace=wrap;html=1;align=center;fillColor=#E1D5E7;" vertex="1" parent="1">
          <mxGeometry x="160" y="250" width="100" height="40" as="geometry" />
        </mxCell>
        <mxCell id="Vwsw8WGM1iIzzPKuS9Um-7" value="" style="endArrow=none;html=1;rounded=0;entryX=1;entryY=0.5;entryDx=0;entryDy=0;exitX=0;exitY=0.5;exitDx=0;exitDy=0;" edge="1" parent="1" source="Vwsw8WGM1iIzzPKuS9Um-9" target="Vwsw8WGM1iIzzPKuS9Um-2">
          <mxGeometry relative="1" as="geometry">
            <mxPoint x="520" y="270" as="sourcePoint" />
            <mxPoint x="520" y="580" as="targetPoint" />
          </mxGeometry>
        </mxCell>
        <mxCell id="Vwsw8WGM1iIzzPKuS9Um-8" value="1" style="resizable=0;html=1;whiteSpace=wrap;align=right;verticalAlign=bottom;" connectable="0" vertex="1" parent="Vwsw8WGM1iIzzPKuS9Um-7">
          <mxGeometry x="1" relative="1" as="geometry" />
        </mxCell>
        <mxCell id="Vwsw8WGM1iIzzPKuS9Um-9" value="&lt;font style=&quot;font-size: 18px;&quot;&gt;학과&lt;/font&gt;" style="whiteSpace=wrap;html=1;align=center;fillColor=#E1D5E7;" vertex="1" parent="1">
          <mxGeometry x="500" y="250" width="100" height="40" as="geometry" />
        </mxCell>
        <mxCell id="Vwsw8WGM1iIzzPKuS9Um-10" value="&lt;font style=&quot;font-size: 18px;&quot;&gt;소속&lt;/font&gt;" style="shape=rhombus;perimeter=rhombusPerimeter;whiteSpace=wrap;html=1;align=center;fillColor=#D5E8D4;" vertex="1" parent="1">
          <mxGeometry x="490" y="360" width="120" height="60" as="geometry" />
        </mxCell>
        <mxCell id="Vwsw8WGM1iIzzPKuS9Um-11" value="" style="endArrow=none;html=1;rounded=0;exitX=0.5;exitY=1;exitDx=0;exitDy=0;entryX=0.5;entryY=0;entryDx=0;entryDy=0;" edge="1" parent="1" source="Vwsw8WGM1iIzzPKuS9Um-9" target="Vwsw8WGM1iIzzPKuS9Um-10">
          <mxGeometry relative="1" as="geometry">
            <mxPoint x="310" y="480" as="sourcePoint" />
            <mxPoint x="470" y="480" as="targetPoint" />
          </mxGeometry>
        </mxCell>
        <mxCell id="Vwsw8WGM1iIzzPKuS9Um-12" value="1" style="resizable=0;html=1;whiteSpace=wrap;align=right;verticalAlign=bottom;" connectable="0" vertex="1" parent="Vwsw8WGM1iIzzPKuS9Um-11">
          <mxGeometry x="1" relative="1" as="geometry">
            <mxPoint x="20" y="-1" as="offset" />
          </mxGeometry>
        </mxCell>
        <mxCell id="Vwsw8WGM1iIzzPKuS9Um-14" value="&lt;span style=&quot;font-size: 18px;&quot;&gt;학생&lt;/span&gt;" style="whiteSpace=wrap;html=1;align=center;fillColor=#E1D5E7;" vertex="1" parent="1">
          <mxGeometry x="500" y="490" width="100" height="40" as="geometry" />
        </mxCell>
        <mxCell id="Vwsw8WGM1iIzzPKuS9Um-15" value="" style="endArrow=none;html=1;rounded=0;entryX=0.5;entryY=1;entryDx=0;entryDy=0;exitX=0.5;exitY=0;exitDx=0;exitDy=0;" edge="1" parent="1" source="Vwsw8WGM1iIzzPKuS9Um-14" target="Vwsw8WGM1iIzzPKuS9Um-10">
          <mxGeometry relative="1" as="geometry">
            <mxPoint x="310" y="480" as="sourcePoint" />
            <mxPoint x="470" y="480" as="targetPoint" />
          </mxGeometry>
        </mxCell>
        <mxCell id="Vwsw8WGM1iIzzPKuS9Um-16" value="N" style="resizable=0;html=1;whiteSpace=wrap;align=right;verticalAlign=bottom;" connectable="0" vertex="1" parent="Vwsw8WGM1iIzzPKuS9Um-15">
          <mxGeometry x="1" relative="1" as="geometry">
            <mxPoint x="20" y="21" as="offset" />
          </mxGeometry>
        </mxCell>
        <mxCell id="Vwsw8WGM1iIzzPKuS9Um-17" value="" style="endArrow=none;html=1;rounded=0;exitX=0.5;exitY=1;exitDx=0;exitDy=0;" edge="1" parent="1" source="Vwsw8WGM1iIzzPKuS9Um-5">
          <mxGeometry relative="1" as="geometry">
            <mxPoint x="310" y="480" as="sourcePoint" />
            <mxPoint x="210" y="360" as="targetPoint" />
          </mxGeometry>
        </mxCell>
        <mxCell id="Vwsw8WGM1iIzzPKuS9Um-18" value="1" style="resizable=0;html=1;whiteSpace=wrap;align=right;verticalAlign=bottom;" connectable="0" vertex="1" parent="Vwsw8WGM1iIzzPKuS9Um-17">
          <mxGeometry x="1" relative="1" as="geometry">
            <mxPoint x="10" y="-1" as="offset" />
          </mxGeometry>
        </mxCell>
        <mxCell id="Vwsw8WGM1iIzzPKuS9Um-19" value="&lt;font style=&quot;font-size: 18px;&quot;&gt;과목&lt;/font&gt;" style="whiteSpace=wrap;html=1;align=center;fillColor=#E1D5E7;" vertex="1" parent="1">
          <mxGeometry x="160" y="490" width="100" height="40" as="geometry" />
        </mxCell>
        <mxCell id="Vwsw8WGM1iIzzPKuS9Um-20" value="&lt;font style=&quot;font-size: 18px;&quot;&gt;강의&lt;/font&gt;" style="shape=rhombus;perimeter=rhombusPerimeter;whiteSpace=wrap;html=1;align=center;fillColor=#D5E8D4;" vertex="1" parent="1">
          <mxGeometry x="150" y="360" width="120" height="60" as="geometry" />
        </mxCell>
        <mxCell id="Vwsw8WGM1iIzzPKuS9Um-21" value="&lt;font style=&quot;font-size: 18px;&quot;&gt;수강&lt;/font&gt;" style="shape=rhombus;perimeter=rhombusPerimeter;whiteSpace=wrap;html=1;align=center;fillColor=#D5E8D4;" vertex="1" parent="1">
          <mxGeometry x="320" y="480" width="120" height="60" as="geometry" />
        </mxCell>
        <mxCell id="Vwsw8WGM1iIzzPKuS9Um-25" value="" style="endArrow=none;html=1;rounded=0;entryX=0;entryY=0.5;entryDx=0;entryDy=0;exitX=1;exitY=0.5;exitDx=0;exitDy=0;" edge="1" parent="1" source="Vwsw8WGM1iIzzPKuS9Um-21" target="Vwsw8WGM1iIzzPKuS9Um-14">
          <mxGeometry relative="1" as="geometry">
            <mxPoint x="310" y="480" as="sourcePoint" />
            <mxPoint x="470" y="480" as="targetPoint" />
          </mxGeometry>
        </mxCell>
        <mxCell id="Vwsw8WGM1iIzzPKuS9Um-26" value="1" style="resizable=0;html=1;whiteSpace=wrap;align=right;verticalAlign=bottom;" connectable="0" vertex="1" parent="Vwsw8WGM1iIzzPKuS9Um-25">
          <mxGeometry x="1" relative="1" as="geometry" />
        </mxCell>
        <mxCell id="Vwsw8WGM1iIzzPKuS9Um-27" value="" style="endArrow=none;html=1;rounded=0;entryX=1;entryY=0.5;entryDx=0;entryDy=0;exitX=0;exitY=0.5;exitDx=0;exitDy=0;" edge="1" parent="1" source="Vwsw8WGM1iIzzPKuS9Um-21" target="Vwsw8WGM1iIzzPKuS9Um-19">
          <mxGeometry relative="1" as="geometry">
            <mxPoint x="310" y="480" as="sourcePoint" />
            <mxPoint x="470" y="480" as="targetPoint" />
          </mxGeometry>
        </mxCell>
        <mxCell id="Vwsw8WGM1iIzzPKuS9Um-28" value="1" style="resizable=0;html=1;whiteSpace=wrap;align=right;verticalAlign=bottom;" connectable="0" vertex="1" parent="Vwsw8WGM1iIzzPKuS9Um-27">
          <mxGeometry x="1" relative="1" as="geometry">
            <mxPoint x="10" as="offset" />
          </mxGeometry>
        </mxCell>
        <mxCell id="Vwsw8WGM1iIzzPKuS9Um-29" value="" style="endArrow=none;html=1;rounded=0;entryX=0.5;entryY=1;entryDx=0;entryDy=0;exitX=0.5;exitY=0;exitDx=0;exitDy=0;" edge="1" parent="1" source="Vwsw8WGM1iIzzPKuS9Um-19" target="Vwsw8WGM1iIzzPKuS9Um-20">
          <mxGeometry relative="1" as="geometry">
            <mxPoint x="310" y="480" as="sourcePoint" />
            <mxPoint x="470" y="480" as="targetPoint" />
          </mxGeometry>
        </mxCell>
        <mxCell id="Vwsw8WGM1iIzzPKuS9Um-30" value="N" style="resizable=0;html=1;whiteSpace=wrap;align=right;verticalAlign=bottom;" connectable="0" vertex="1" parent="Vwsw8WGM1iIzzPKuS9Um-29">
          <mxGeometry x="1" relative="1" as="geometry">
            <mxPoint x="20" y="21" as="offset" />
          </mxGeometry>
        </mxCell>
        <mxCell id="Vwsw8WGM1iIzzPKuS9Um-31" value="" style="endArrow=none;html=1;rounded=0;exitX=1;exitY=0.5;exitDx=0;exitDy=0;entryX=0;entryY=1;entryDx=0;entryDy=0;" edge="1" parent="1" source="Vwsw8WGM1iIzzPKuS9Um-9" target="Vwsw8WGM1iIzzPKuS9Um-32">
          <mxGeometry relative="1" as="geometry">
            <mxPoint x="520" y="210" as="sourcePoint" />
            <mxPoint x="650" y="240" as="targetPoint" />
          </mxGeometry>
        </mxCell>
        <mxCell id="Vwsw8WGM1iIzzPKuS9Um-32" value="&lt;font style=&quot;font-size: 14px;&quot;&gt;학과코드&lt;/font&gt;" style="ellipse;whiteSpace=wrap;html=1;align=center;fontStyle=4;" vertex="1" parent="1">
          <mxGeometry x="630" y="200" width="100" height="40" as="geometry" />
        </mxCell>
        <mxCell id="Vwsw8WGM1iIzzPKuS9Um-35" value="" style="endArrow=none;html=1;rounded=0;exitX=1;exitY=0.75;exitDx=0;exitDy=0;entryX=0;entryY=0;entryDx=0;entryDy=0;" edge="1" parent="1" source="Vwsw8WGM1iIzzPKuS9Um-9" target="Vwsw8WGM1iIzzPKuS9Um-36">
          <mxGeometry relative="1" as="geometry">
            <mxPoint x="540" y="330" as="sourcePoint" />
            <mxPoint x="640" y="310" as="targetPoint" />
          </mxGeometry>
        </mxCell>
        <mxCell id="Vwsw8WGM1iIzzPKuS9Um-36" value="&lt;font style=&quot;font-size: 14px;&quot;&gt;학과명&lt;/font&gt;" style="ellipse;whiteSpace=wrap;html=1;align=center;" vertex="1" parent="1">
          <mxGeometry x="630" y="300" width="100" height="40" as="geometry" />
        </mxCell>
        <mxCell id="Vwsw8WGM1iIzzPKuS9Um-37" value="&lt;font style=&quot;font-size: 14px;&quot;&gt;학번&lt;/font&gt;" style="ellipse;whiteSpace=wrap;html=1;align=center;fontStyle=4;" vertex="1" parent="1">
          <mxGeometry x="630" y="440" width="100" height="40" as="geometry" />
        </mxCell>
        <mxCell id="Vwsw8WGM1iIzzPKuS9Um-38" value="&lt;font style=&quot;font-size: 14px;&quot;&gt;이름&lt;/font&gt;" style="ellipse;whiteSpace=wrap;html=1;align=center;" vertex="1" parent="1">
          <mxGeometry x="630" y="490" width="100" height="40" as="geometry" />
        </mxCell>
        <mxCell id="Vwsw8WGM1iIzzPKuS9Um-39" value="&lt;font style=&quot;font-size: 14px;&quot;&gt;키&lt;/font&gt;" style="ellipse;whiteSpace=wrap;html=1;align=center;" vertex="1" parent="1">
          <mxGeometry x="630" y="540" width="100" height="40" as="geometry" />
        </mxCell>
        <mxCell id="Vwsw8WGM1iIzzPKuS9Um-40" value="" style="endArrow=none;html=1;rounded=0;entryX=0;entryY=0.5;entryDx=0;entryDy=0;exitX=1;exitY=0.5;exitDx=0;exitDy=0;" edge="1" parent="1" source="Vwsw8WGM1iIzzPKuS9Um-14" target="Vwsw8WGM1iIzzPKuS9Um-38">
          <mxGeometry relative="1" as="geometry">
            <mxPoint x="350" y="450" as="sourcePoint" />
            <mxPoint x="510" y="450" as="targetPoint" />
          </mxGeometry>
        </mxCell>
        <mxCell id="Vwsw8WGM1iIzzPKuS9Um-41" value="" style="endArrow=none;html=1;rounded=0;entryX=0;entryY=0.5;entryDx=0;entryDy=0;exitX=1;exitY=0.5;exitDx=0;exitDy=0;" edge="1" parent="1" source="Vwsw8WGM1iIzzPKuS9Um-14" target="Vwsw8WGM1iIzzPKuS9Um-39">
          <mxGeometry relative="1" as="geometry">
            <mxPoint x="310" y="418.95" as="sourcePoint" />
            <mxPoint x="470" y="418.95" as="targetPoint" />
          </mxGeometry>
        </mxCell>
        <mxCell id="Vwsw8WGM1iIzzPKuS9Um-42" value="" style="endArrow=none;html=1;rounded=0;entryX=0;entryY=0.5;entryDx=0;entryDy=0;exitX=1;exitY=0.5;exitDx=0;exitDy=0;" edge="1" parent="1" source="Vwsw8WGM1iIzzPKuS9Um-14" target="Vwsw8WGM1iIzzPKuS9Um-37">
          <mxGeometry relative="1" as="geometry">
            <mxPoint x="310" y="490" as="sourcePoint" />
            <mxPoint x="470" y="490" as="targetPoint" />
          </mxGeometry>
        </mxCell>
        <mxCell id="Vwsw8WGM1iIzzPKuS9Um-44" value="" style="endArrow=none;html=1;rounded=0;exitX=0;exitY=0.5;exitDx=0;exitDy=0;entryX=1;entryY=1;entryDx=0;entryDy=0;" edge="1" parent="1" target="Vwsw8WGM1iIzzPKuS9Um-45" source="Vwsw8WGM1iIzzPKuS9Um-5">
          <mxGeometry relative="1" as="geometry">
            <mxPoint x="20" y="270" as="sourcePoint" />
            <mxPoint x="70" y="240" as="targetPoint" />
          </mxGeometry>
        </mxCell>
        <mxCell id="Vwsw8WGM1iIzzPKuS9Um-45" value="&lt;font style=&quot;font-size: 14px;&quot;&gt;교수코드&lt;/font&gt;" style="ellipse;whiteSpace=wrap;html=1;align=center;fontStyle=4;" vertex="1" parent="1">
          <mxGeometry x="30" y="200" width="100" height="40" as="geometry" />
        </mxCell>
        <mxCell id="Vwsw8WGM1iIzzPKuS9Um-46" value="" style="endArrow=none;html=1;rounded=0;exitX=0;exitY=0.5;exitDx=0;exitDy=0;entryX=1;entryY=0;entryDx=0;entryDy=0;" edge="1" parent="1" target="Vwsw8WGM1iIzzPKuS9Um-47" source="Vwsw8WGM1iIzzPKuS9Um-5">
          <mxGeometry relative="1" as="geometry">
            <mxPoint x="20" y="280" as="sourcePoint" />
            <mxPoint x="60" y="310" as="targetPoint" />
          </mxGeometry>
        </mxCell>
        <mxCell id="Vwsw8WGM1iIzzPKuS9Um-47" value="&lt;font style=&quot;font-size: 14px;&quot;&gt;교수이름&lt;/font&gt;" style="ellipse;whiteSpace=wrap;html=1;align=center;" vertex="1" parent="1">
          <mxGeometry x="30" y="300" width="100" height="40" as="geometry" />
        </mxCell>
        <mxCell id="Vwsw8WGM1iIzzPKuS9Um-48" value="&lt;font style=&quot;font-size: 14px;&quot;&gt;과목코드&lt;/font&gt;" style="ellipse;whiteSpace=wrap;html=1;align=center;fontStyle=4;" vertex="1" parent="1">
          <mxGeometry x="30" y="430" width="100" height="40" as="geometry" />
        </mxCell>
        <mxCell id="Vwsw8WGM1iIzzPKuS9Um-49" value="&lt;font style=&quot;font-size: 14px;&quot;&gt;과목명&lt;/font&gt;" style="ellipse;whiteSpace=wrap;html=1;align=center;" vertex="1" parent="1">
          <mxGeometry x="30" y="480" width="100" height="40" as="geometry" />
        </mxCell>
        <mxCell id="Vwsw8WGM1iIzzPKuS9Um-50" value="&lt;font style=&quot;font-size: 14px;&quot;&gt;종료일&lt;/font&gt;" style="ellipse;whiteSpace=wrap;html=1;align=center;" vertex="1" parent="1">
          <mxGeometry x="30" y="530" width="100" height="40" as="geometry" />
        </mxCell>
        <mxCell id="Vwsw8WGM1iIzzPKuS9Um-51" value="&lt;font style=&quot;font-size: 14px;&quot;&gt;시작일&lt;/font&gt;" style="ellipse;whiteSpace=wrap;html=1;align=center;" vertex="1" parent="1">
          <mxGeometry x="80" y="580" width="100" height="40" as="geometry" />
        </mxCell>
        <mxCell id="Vwsw8WGM1iIzzPKuS9Um-52" value="" style="endArrow=none;html=1;rounded=0;exitX=0.5;exitY=0;exitDx=0;exitDy=0;entryX=0;entryY=1;entryDx=0;entryDy=0;" edge="1" parent="1" source="Vwsw8WGM1iIzzPKuS9Um-51" target="Vwsw8WGM1iIzzPKuS9Um-19">
          <mxGeometry relative="1" as="geometry">
            <mxPoint x="290" y="670" as="sourcePoint" />
            <mxPoint x="450" y="670" as="targetPoint" />
          </mxGeometry>
        </mxCell>
        <mxCell id="Vwsw8WGM1iIzzPKuS9Um-53" value="" style="endArrow=none;html=1;rounded=0;exitX=1;exitY=0.5;exitDx=0;exitDy=0;entryX=0;entryY=0.5;entryDx=0;entryDy=0;" edge="1" parent="1" source="Vwsw8WGM1iIzzPKuS9Um-49" target="Vwsw8WGM1iIzzPKuS9Um-19">
          <mxGeometry relative="1" as="geometry">
            <mxPoint x="253" y="710" as="sourcePoint" />
            <mxPoint x="413" y="710" as="targetPoint" />
            <Array as="points" />
          </mxGeometry>
        </mxCell>
        <mxCell id="Vwsw8WGM1iIzzPKuS9Um-54" value="" style="endArrow=none;html=1;rounded=0;exitX=1;exitY=0;exitDx=0;exitDy=0;entryX=0;entryY=0.5;entryDx=0;entryDy=0;" edge="1" parent="1" source="Vwsw8WGM1iIzzPKuS9Um-50" target="Vwsw8WGM1iIzzPKuS9Um-19">
          <mxGeometry relative="1" as="geometry">
            <mxPoint x="260" y="620" as="sourcePoint" />
            <mxPoint x="420" y="620" as="targetPoint" />
          </mxGeometry>
        </mxCell>
        <mxCell id="Vwsw8WGM1iIzzPKuS9Um-55" value="" style="endArrow=none;html=1;rounded=0;exitX=1;exitY=1;exitDx=0;exitDy=0;entryX=0;entryY=0.5;entryDx=0;entryDy=0;" edge="1" parent="1" source="Vwsw8WGM1iIzzPKuS9Um-48" target="Vwsw8WGM1iIzzPKuS9Um-19">
          <mxGeometry relative="1" as="geometry">
            <mxPoint x="220" y="490" as="sourcePoint" />
            <mxPoint x="380" y="490" as="targetPoint" />
          </mxGeometry>
        </mxCell>
      </root>
    </mxGraphModel>
  </diagram>
</mxfile>
